<svg width="0" height="0" id="a54ecad8-0454-401d-adc4-aa5c012e9ef2" data-name="Layer 1" xmlns="http://www.w3.org/2000/svg" viewBox="0 0 495.82 371.79"><title>Dylan and Cody logo</title><path d="M747.58,500a69,69,0,0,1,14.72,1.45c5.87,1.26,11.63,3,17.49,4.31,9,2.05,18,4.28,27,6.42,6.35,1.51,17,5.77,23.23,2.59,2.62-1.33,4.17-4.07,5.57-6.65,7.68-14.24,15.54-28.41,22.94-42.8a5.45,5.45,0,0,0,.43-2.49c-2.48.87-5,3.8-7.14,5.47q-4.12,3.24-8.38,6.31c-6.56,4.75-18.55,16.53-27.18,10.88-4.63-3-6.78-9-6.47-14.5s2.7-10.74,5.55-15.5c4.1-6.87,8.58-13.48,11.85-20.81-9.78,4.84-15.66,13.52-23.61,20.71q-7.9,7.17-16.33,13.72c-4.47,3.47-10.07,8.93-16.24,8.09a11,11,0,0,1-6.57-4.06,17.42,17.42,0,0,1-4.53-11.31c0-2.56.73-5,1-7.57.27-2.7.82-5.49-2.09-4.84-2.54.58-5.92,4-8.06,5.48q-4,2.79-7.89,5.69c-7.06,5.27-19.77,10.18-23.32-1.86-1.38-4.66-.26-9.68,1.29-14.28,1.44-4.25,4.2-9.35,3.91-13.9a8.53,8.53,0,0,0-4,0c-6.37,2.11-9.65,9.35-13.19,14.59a140,140,0,0,1-10.91,13.55c-5.16,5.9-10.46,11.92-17.3,15.76-9.77,5.49-20.42,1.68-24.85-8.64-1.26-2.94-2.66-6.42-5.87-3a249.93,249.93,0,0,1-34.44,30.56c-5.89,4.33-11.5,8.85-18.89,10-11,1.74-18.46-3.65-24.07-12.68a59,59,0,0,1-7.27-16.87c-2.6-10.79.3-23.35,4.1-33.48,4-10.65,10.16-19.93,15.59-29.84a82,82,0,0,1,19-23.12c11.46-9.64,25.7-14,40.12-8.69a20.66,20.66,0,0,1,10.31,7.64c2.2,3.38,2.94,7.43,3.2,11.39s1,7.75.88,11.64c0,2-.77,4.24-2.5,5.32a6,6,0,0,1-4.85.33,3.23,3.23,0,0,1-1.47-.81,3.63,3.63,0,0,1-.66-2.38c-.12-4.06.79-8,.28-12a42.48,42.48,0,0,0-3.65-12.58,3.93,3.93,0,0,0-1.24-1.69c-1-.66-2.36-.29-3.49.13a75.8,75.8,0,0,0-34.68,26.21c-9.59,13.12-19.29,25.67-23.68,41.72-2.27,8.29-2.82,16.95-3,25.55-.13,7.57,3.55,18.37,13,18.11a13.69,13.69,0,0,0,5.38-1.65c16.67-7.91,29.61-19.29,42.86-31.83,4.82-4.55,9.85-9,13.66-14.48,3.42-4.92,6.41-10.12,9.94-15,3.66-5,8.12-9.3,12.27-13.91a1.36,1.36,0,0,1,.76-.52,1.58,1.58,0,0,1,.88.28,4.16,4.16,0,0,0,3.23.38c2.38-.78,2.94-3.52,4.2-5.37a16.9,16.9,0,0,1,5.77-5.12,18.82,18.82,0,0,1,16.62-.59,22.4,22.4,0,0,1,8.35,6.66,25.74,25.74,0,0,1,2.77,4.39c.54,1.08.91,3.61,1.81,4.34,2.52,2.06,9.15-1.27,11.41-2.8,8.4-5.66,12.54-15.31,24-15.49a36.92,36.92,0,0,1,10.94,1.94,15.34,15.34,0,0,1,5.69,2.66c1.55,1.32,2.79,5.53,4.66,5.44,1.17-.05,2.77-2.54,3.39-3.33,1.89-2.37,3.41-5,5.09-7.49,4.45-6.67,9-13.32,13.29-20.08.33-.51.67-1.17.37-1.71a1.77,1.77,0,0,0-1.39-.66c-19.15-2.61-38.39-4.37-57.48-7.55-18.9-3.14-37.38-8.45-56.12-12.45q-30.37-6.5-60.71-13.18l-6.67-1.49a9.44,9.44,0,0,0-3-.33c-4.18.46-6.41,7-8.55,10-7,9.52-15.23,20.62-25.9,26.22-16.49,8.69-36.68,7.49-54.44,4.07-12-2.32-29.36-4.79-32.73-18.88-5.34-22.35,24.6-29.13,40.23-32.1,22.06-4.18,43-1.24,65,1.87,1.34.19,2.83.34,3.93-.44a5.35,5.35,0,0,0,1.59-2.34c3.07-6.88,6.33-13.71,9.18-20.69a160,160,0,0,0,7.35-20.69,2.93,2.93,0,0,0-2.21,1.27c-6.65,7.13-13.06,15-21.41,20.23a30.14,30.14,0,0,1-15.64,5,15,15,0,0,1-9.84-3.15c-3.88-3.32-6-9.63-6-14.65.08-6.79,3.89-13.92,6.06-20.28a1.65,1.65,0,0,0,.11-1.07c-.29-.84-1.52-.67-2.35-.34-7.27,3-18.5,6-23.12,12.89-3.67,3.84-6.61,8.32-10.28,12.16s-8.54,6.61-13.5,8.84c-10.38,4.66-22.93,5.4-32.08-2.32-6.79-5.73,2.12-13.71,7.26-16.9,9.59-6,20.28-6.79,31.05-8.88a4.26,4.26,0,0,0,2.72-1.87c5-10.4,10-20.77,14.59-31.34,3.69-8.51,6.42-17.16,6.33-26.54a7.23,7.23,0,0,0-.88-4c-1.54-2.31-4.91-2.3-7.62-1.73-9.55,2-19.58,7.32-27.12,13.48a311.21,311.21,0,0,0-23.46,21.45C485.68,263.4,481.17,270.52,476,277c-3.87,4.81-8.06,9.38-11.79,14.29-6.1,8-10.06,17.18-14.48,26.2a6.57,6.57,0,0,1-1.34,2,5.53,5.53,0,0,1-2.85,1.18c-5.78,1-13.09-6.55-12.64-12.34a12.57,12.57,0,0,1,1.12-3.8c4.68-11.41,9.05-22.91,13.46-34.44,3.58-9.36,7.18-18.72,10.72-28.1q4.05-10.71,8.05-21.42c2.47-6.62,5.84-13.36,6.48-20.41a2.7,2.7,0,0,1,.24-1.06,2,2,0,0,1,2.26-.79c4.6,1.26,8.87,4.84,11.78,8.56a11.5,11.5,0,0,1,2.69,7.81c-.21,2.51-1.52,4.78-2.74,7-9.27,16.69-15.43,35.21-22.44,52.91a4,4,0,0,0-.38,2.8c1.2.17,2.18-.89,2.92-1.85,5.59-7.23,11-14.61,17-21.52a157.51,157.51,0,0,1,17.16-17.11c10.36-8.72,25.4-21.23,39.81-20.59a31.45,31.45,0,0,1,11.86,3.36,26.6,26.6,0,0,1,9,6.23c8.08,9.3,3.5,22.67,0,32.9-2.26,6.68-5.32,13.1-8,19.65a6.2,6.2,0,0,0-.08,2,5.61,5.61,0,0,0,1.77-.31c6.44-3.47,12.73-7.26,19.35-10.33a11.39,11.39,0,0,1,8-.28c5.89,2.21,8.12,4.94,9.19,11.21a7.11,7.11,0,0,1,.05,2.83c-.8,3.24-4.1,6.36-5.65,9.34a118.26,118.26,0,0,0-7.49,18.38,2.78,2.78,0,0,0,.1,2.65,2.58,2.58,0,0,0,2.29.52c18.6-2.33,30.62-22.7,41.2-36,1.4-1.75,3-3.64,5.26-3.95,4-.55,10,4.14,12.7,6.74,1.12,1.08,1,4.34.35,6.22a250.9,250.9,0,0,1-12,28.1c-2.34,4.75-4.76,9.45-7.22,14.13-1,1.93-7,10.38-5.42,12.2a4,4,0,0,0,2.3,1c39.86,8.16,79.75,16.56,119.71,24.25q16.77,3.23,33.75,5.24,8.48,1,17,1.72c3.27.27,6.57.74,9.85.83,7.73.19,10.27-4.89,14.53-10.35,7.87-10.07,16-21.82,29.25-24.77,8.54-1.89,18.28.63,23.8,7.42a15.66,15.66,0,0,1,3.72,11.74c-.81,6.07-6.67,13.61-11.58,17.1-3.67,2.62-8.68,4-13.27,4.56-5.71.72-11.47,1-17.22,1.41-4.32.27-10.15-.57-13.45,2.82a17.48,17.48,0,0,0-3.07,5.21,217.6,217.6,0,0,1-17.68,31c-6.41,9.62-13.74,18.69-19.05,29-2.67,5.15-3.39,11.31-4.81,17.06,0,.18,2,1.4,2.68,1.16,10.48-3.3,19.55-12.72,27.66-19.88,7.22-6.38,14.32-12.9,22-18.76,3.17-2.43,6.42-5.58,10.73-5.09s7.91,4.16,11.06,6.85a8.1,8.1,0,0,1,2.37,2.78,5.72,5.72,0,0,1-.45,4.83c-2.68,5-7.22,9.68-10.47,14.42q-4.44,6.48-8.62,13.12c-1.39,2.21-2.77,4.43-4.11,6.68a17.57,17.57,0,0,0-2.06,5.25c21.41-5.81,34.55-24.61,48.91-40,.86-.92,3.45-1.42,4.43-.82a88.65,88.65,0,0,1,9.87,7.17,7.27,7.27,0,0,1,1.81,1.94c2.19,3.95-3.29,9.3-5.1,12.43l-9.32,16.14c-7.26,12.58-13.87,26-22.24,37.83-.44.62-.9,1.41-.56,2.09,1.19,2.35,12.92-.24,15.11-.6a80.37,80.37,0,0,0,16.56-4.51c10.45-4.13,19.28-11.16,28.39-17.58q5.34-3.76,10.65-7.56c2.37-1.68,6.18-5.65,8.87-2a1.9,1.9,0,0,1,.41,1.08,2.3,2.3,0,0,1-.65,1.33c-2,2.45-4.72,3.83-7.08,5.86-4.38,3.77-8.82,7.47-13.46,10.91-8.13,6-17.23,12-26.94,15.05a105.26,105.26,0,0,1-32.84,4.71c-6.39-.06-10.71,5-14.39,9.58-11.28,13.94-26.91,21.51-42.23,30.11-13.65,7.66-29.72,9.61-45.07,7.43a96.73,96.73,0,0,1-22.6-6.14c-6.31-2.56-14.26-5.67-19-10.69-6.11-6.42-6.21-15.49-4-23.6C706,507.84,727.82,500.07,747.58,500Zm6.89,63.18a77.05,77.05,0,0,0,38.93-11c12.4-7.62,21.89-18.47,32-28.76a2.24,2.24,0,0,0,.82-1.4c0-1-1.19-1.53-2.18-1.77-16-3.81-31.87-8.18-48.08-11.06a192.23,192.23,0,0,0-25.09-2.93c-11.77-.51-24.49,1.79-34.26,8.7-10,7-18.66,23-9.92,34.23,5.3,6.82,15,9,23,11.06A94.21,94.21,0,0,0,754.47,563.16ZM551,383.17c8.59-1,17.45-3,24.25-8.62,8.4-7,15-16.38,21.12-25.32.66-1,1.32-2.23.68-3.2a2.94,2.94,0,0,0-2.06-1,186.34,186.34,0,0,0-58.27-1.85c-13.09,1.69-29.89,4.89-36.34,18a9.8,9.8,0,0,0-1.12,6c1.49,8.06,14.39,11.51,20.94,13.43a76.56,76.56,0,0,0,29.57,2.71Zm114.79,85.45a4,4,0,0,0,2.29,3.66c1.44.55,3-.11,4.42-.79A72.24,72.24,0,0,0,693,455.83c3-3.25,5.87-6.7,8.59-10.23,2.5-3.23,6.1-6.82,7.1-10.87-4,0-8-.12-12-.12-3.31-.13-7-1.52-10.11.05-4.54,2.27-8.32,8.73-11,12.84A106.87,106.87,0,0,0,667,464.08a11.08,11.08,0,0,0-1.17,4.47ZM766,414.79l-.13,0a1.22,1.22,0,0,0-.7.21c-3.06,1.6-6,3-8.47,5.51q-4.38,4.36-8.31,9.16c-7.58,9.26-13.73,19.92-19.53,30.37-.12.21,4-.22,4.39-.35a34.51,34.51,0,0,0,4.43-2.21,63.65,63.65,0,0,0,10.14-6.68c8.39-6.66,21.17-13.45,22.21-25.22a12.89,12.89,0,0,0-3.53-10.41A1.56,1.56,0,0,0,766,414.79Zm96-61.94a11.23,11.23,0,0,0-.49-2.51,2.6,2.6,0,0,0-.63-1.18,3,3,0,0,0-1.39-.61,18.84,18.84,0,0,0-7.14-.77c-5.28.72-10.38,4.66-14.59,7.73-6,4.4-10.35,10.13-14.23,16.42-.2.34.6,1.83.81,1.81,7-.95,15-1.06,21.67-3.61S862.5,360.86,861.92,352.85Zm-167,77.35a15.4,15.4,0,0,0,2.35-.1c4.28-.43,13-.28,15.6-4.61a5.49,5.49,0,0,0,.14-4.72c-1.85-4.72-5.76-7.9-11-7.19-5.79.78-13.73,5.5-12.33,12.34a5.35,5.35,0,0,0,2.83,3.73A6.08,6.08,0,0,0,694.93,430.2ZM498.77,312.87A19.82,19.82,0,0,0,507,311.3c7.22-2.82,14.49-8.88,16.62-16.59.17-.61-14,2.6-15.21,3.09-6.62,2.76-13.44,7.17-17.36,13.33A26.79,26.79,0,0,0,498.77,312.87Z" transform="translate(-432.85 -198.26)"/><path d="M649.47,317.45a19.61,19.61,0,0,1-.07-3.72c1.14-12.33,6.47-23.33,11.68-34.36,8.8-18.69,17.65-37.88,29.68-54.75,4.85-6.8,11.92-15.87,20.62-17.7,7.3-1.54,17.39,2.74,20.61,9.61a8.52,8.52,0,0,1,.78,5.9c-2.14,7.09-7.88,12.8-12.91,18-7.77,8-15.19,16.83-24.58,23-6.69,4.39-13.1,9.51-16.93,16.69-7.68,14.36-12.85,30-17.18,45.67a1.65,1.65,0,0,0,1.72.62,4.87,4.87,0,0,0,1.73-.87,107.1,107.1,0,0,0,12.88-9.9c3.91-3.65,7.22-7,8.79-12.17,2.93-9.62,9.09-17.53,16.36-24.32,3.22-3,7.06-5.53,11.4-6.25,6.6-1.1,13.31,1.85,19.47,3.84a6.69,6.69,0,0,1,1.73.76c1.52,1.07,1.82,3.21,3,4.66-.3-.62,3.89-5.11,4.32-5.69,1.9-2.5,3.54-5,7.14-4.58a11.45,11.45,0,0,1,6.14,3.31c2.23,2.06,6.6,5.12,5.13,8.71a9.49,9.49,0,0,1-2.1,2.87,119.67,119.67,0,0,0-12.37,15.81c-3.66,5.49-8.11,10.87-9.92,17.34,2.37-1.18,5.32-1.75,7.53-3.2,6.55-4.31,11.8-10.23,17.55-15.5a239.65,239.65,0,0,1,21.89-17.4,17.19,17.19,0,0,1,7-3.32c5.79-1,12.92,5.7,14.9,10.8.75,1.94,0,4.44.86,6.12-.05-.63,4-3.15,4.43-3.51,3.25-2.53,6.5-5,9.75-7.56,4.1-3.17,8.17-6.39,12.31-9.51,3.24-2.44,6.32-5.85,10.39-6.81a15.48,15.48,0,0,1,8.21.72c9.68,3,11.85,11.34,8.32,20.25-4.05,10.23-8.39,20.34-12.61,30.49a1.55,1.55,0,0,0-.14,1.3c.4.77,1.58.36,2.29-.15,14-9.93,26.28-20.78,37.13-34.22a19.74,19.74,0,0,1,4.65-4.65c3.27-2,5.69-.66,8.56,1.19a1.76,1.76,0,0,1,.82.84c.19.58-.26,1.16-.68,1.62A195.64,195.64,0,0,1,880.92,306c-5.86,4.86-11.31,10.21-17.26,15-5.47,4.37-11.86,9.53-19.3,8.87a12.39,12.39,0,0,1-8.89-4.75,15.91,15.91,0,0,1-2.61-7.27c-1.93-13.78,6.84-27.07,12-39.25a6.1,6.1,0,0,0,.24-1.62c-4.42.29-9.11,5.24-12.57,7.88q-6.72,5.11-13.14,10.62-9,7.74-17.45,16.16c-4.45,4.46-9.08,12-15.87,12.67a11.92,11.92,0,0,1-9.68-3.52,6.54,6.54,0,0,1-1.69-2.73,6.86,6.86,0,0,1,.65-4.62A97.48,97.48,0,0,1,783,300.23c1.44-2.18,2.94-4.33,4.41-6.5,1-1.51,3.39-3.9,3.81-5.68.17-.72-.36-1.63-1.1-1.53a1.74,1.74,0,0,0-.8.43q-12.78,10.21-25.5,20.51c-4.36,3.53-8.43,7.39-12.76,11-3.68,3-8.91,7.92-13.88,8.36-2.75.25-5.41-1.12-7.53-2.9a12.71,12.71,0,0,1-4.07-5.62c-1.76-5.42,2.88-11.37.39-16.4.1.22-9.66,8.48-10.61,9.35q-4.21,3.87-8.53,7.64c-3.89,3.4-7.24,8.09-13,7.46-3.72-.4-5.62-3-8-5.47a2.24,2.24,0,0,0-1.18-.79,2.33,2.33,0,0,0-1.8.77c-3.63,3-7.23,6.05-10.79,9.17a19.48,19.48,0,0,1-7.46,4.54C655.66,336.93,650.36,325.59,649.47,317.45Zm79.25-30.63a10.06,10.06,0,0,0-.71-3.31.79.79,0,0,0-.42-.53.82.82,0,0,0-.59.11,44.84,44.84,0,0,0-18.22,15,92.55,92.55,0,0,0-6.47,10.55c-1.89,3.51-2.54,7.37-5.2,10.49,1.14-1.35,3.61-2.19,5.1-3.19a51,51,0,0,0,5.93-4.63c3.8-3.47,7.76-6.74,11.49-10.29C723.71,297.08,729,292.62,728.72,286.82Zm-4.55-68.12c-4.2-2.19-9,1.87-11.68,4.76a115,115,0,0,0-12.42,16q-2.82,4.38-5.23,9a40.32,40.32,0,0,0-2.19,4.42c-.22.59-.54,3.11-1,3.46a163.22,163.22,0,0,0,18.37-18c1.18-1.35,15.13-19,14.57-19.38C724.48,218.86,724.32,218.78,724.17,218.7Zm81.07,80.46c-.31-.19-.5-.4-.67-.39s-.37.23-.56.36c.19.18.36.44.59.52S804.93,299.41,805.24,299.16Z" transform="translate(-432.85 -198.26)"/><path d="M498.85,452.6a4.72,4.72,0,0,0-.54-1.83A3.48,3.48,0,0,0,494.8,449a5.25,5.25,0,0,0-2.39,1.25,15.63,15.63,0,0,0-5.41,8.34c-.38,1.59-.49,3.29-1.53,4.68s-3.51,2.22-4.78,1.1a3,3,0,0,1-.81-2.19c-.33-6,3.45-12.28,9.48-15.71,4.29-2.45,9.43-3.46,13.8-5.8a32.7,32.7,0,0,1,5.14-2.62c1.85-.6,4.12-.57,5.4.62a1.37,1.37,0,0,1,.45.69c.13.66-.5,1.28-1.1,1.75a32.23,32.23,0,0,1-8.68,4.82,2.73,2.73,0,0,0-1.46.9,1.75,1.75,0,0,0-.06,1.31c.65,2.8,1.72,5.53,2,8.39.93,8.73-6,17.77-15.47,21.67a36,36,0,0,1-29.38-1.5c-4.1-2.14-7.69-5.1-9.67-8.86-6.76-12.83,4.23-30.35,19.34-35.86-1.94.71-5.3-6.56-5.65-7.58a16.4,16.4,0,0,1,14-21.46c8.5-.91,13.56,4.4,17.51,9.79.78,1.07,1.1,2.63,0,3.6a3.23,3.23,0,0,1-3,.54,6,6,0,0,1-2.33-1.63c-3.18-3.22-12.33-13.06-17.33-5.54a6.27,6.27,0,0,0-1,3.68c.16,6.65,4.32,14.26,12.83,14.8a33.31,33.31,0,0,1,5.12.29c3.89.86,4.07,4.49.12,5.72-6.54,2-13.56.32-19.67,4.13a19.57,19.57,0,0,0-5.45,5.39c-4.65,6.55-3.23,16.38.81,22.88a17.93,17.93,0,0,0,19.07,7.58,18.35,18.35,0,0,0,10.63-7.93,24.58,24.58,0,0,0,3.46-11.75A12.17,12.17,0,0,0,498.85,452.6Z" transform="translate(-432.85 -198.26)"/></svg>